<svg width="132" height="24" viewBox="0 0 132 24" fill="none" xmlns="http://www.w3.org/2000/svg">
<path d="M16.5 6H13.5C12.9477 6 12.5 6.44772 12.5 7V10H16.5C16.6137 9.99748 16.7216 10.0504 16.7892 10.1419C16.8568 10.2334 16.8758 10.352 16.84 10.46L16.1 12.66C16.0318 12.8619 15.8431 12.9984 15.63 13H12.5V20.5C12.5 20.7761 12.2761 21 12 21H9.5C9.22386 21 9 20.7761 9 20.5V13H7.5C7.22386 13 7 12.7761 7 12.5V10.5C7 10.2239 7.22386 10 7.5 10H9V7C9 4.79086 10.7909 3 13 3H16.5C16.7761 3 17 3.22386 17 3.5V5.5C17 5.77614 16.7761 6 16.5 6Z" fill="white"/>
<path fill-rule="evenodd" clip-rule="evenodd" d="M52 3H44C41.2386 3 39 5.23858 39 8V16C39 18.7614 41.2386 21 44 21H52C54.7614 21 57 18.7614 57 16V8C57 5.23858 54.7614 3 52 3ZM55.25 16C55.2445 17.7926 53.7926 19.2445 52 19.25H44C42.2074 19.2445 40.7555 17.7926 40.75 16V8C40.7555 6.20735 42.2074 4.75549 44 4.75H52C53.7926 4.75549 55.2445 6.20735 55.25 8V16ZM52.75 8.25C53.3023 8.25 53.75 7.80228 53.75 7.25C53.75 6.69772 53.3023 6.25 52.75 6.25C52.1977 6.25 51.75 6.69772 51.75 7.25C51.75 7.80228 52.1977 8.25 52.75 8.25ZM48 7.5C45.5147 7.5 43.5 9.51472 43.5 12C43.5 14.4853 45.5147 16.5 48 16.5C50.4853 16.5 52.5 14.4853 52.5 12C52.5027 10.8057 52.0294 9.65957 51.1849 8.81508C50.3404 7.97059 49.1943 7.49734 48 7.5ZM45.25 12C45.25 13.5188 46.4812 14.75 48 14.75C49.5188 14.75 50.75 13.5188 50.75 12C50.75 10.4812 49.5188 9.25 48 9.25C46.4812 9.25 45.25 10.4812 45.25 12Z" fill="white"/>
<path d="M92.9727 6.7174C92.5083 7.33692 91.9469 7.87733 91.3102 8.31776C91.3102 8.47959 91.3102 8.64142 91.3102 8.81225C91.3153 11.7511 90.1414 14.5691 88.0517 16.6345C85.9619 18.6999 83.1311 19.8399 80.1939 19.7989C78.4959 19.8046 76.8196 19.4169 75.2963 18.6661C75.2142 18.6302 75.1612 18.549 75.1615 18.4593V18.3604C75.1615 18.2313 75.2661 18.1267 75.3952 18.1267C77.0643 18.0716 78.6739 17.4929 79.9962 16.4724C78.4854 16.4419 77.1261 15.5469 76.5005 14.1707C76.4689 14.0956 76.4787 14.0093 76.5264 13.9432C76.5742 13.8771 76.6529 13.8407 76.7341 13.8471C77.1933 13.8932 77.6571 13.8505 78.1001 13.7212C76.4323 13.375 75.1791 11.9904 74.9997 10.2957C74.9934 10.2144 75.0298 10.1357 75.0959 10.0879C75.1619 10.0402 75.2481 10.0303 75.3233 10.062C75.7708 10.2595 76.254 10.3635 76.7431 10.3676C75.2817 9.40846 74.6505 7.58405 75.2064 5.92622C75.2638 5.76513 75.4017 5.64612 75.5694 5.61294C75.7371 5.57975 75.9098 5.63728 76.0242 5.76439C77.9963 7.86325 80.7059 9.11396 83.5818 9.25279C83.5082 8.95885 83.472 8.65676 83.474 8.35372C83.5009 6.76472 84.4841 5.34921 85.9633 4.76987C87.4424 4.19054 89.1248 4.56203 90.2229 5.71044C90.9713 5.56785 91.6949 5.31645 92.3706 4.96421C92.4201 4.93331 92.4829 4.93331 92.5324 4.96421C92.5633 5.01373 92.5633 5.07652 92.5324 5.12604C92.2051 5.87552 91.6522 6.50412 90.9508 6.92419C91.565 6.85296 92.1684 6.70807 92.7481 6.49264C92.7969 6.45942 92.861 6.45942 92.9098 6.49264C92.9507 6.51134 92.9813 6.54711 92.9934 6.59042C93.0055 6.63373 92.9979 6.68018 92.9727 6.7174Z" fill="white"/>
<path fill-rule="evenodd" clip-rule="evenodd" d="M113 3H127C128.105 3 129 3.89543 129 5V19C129 20.1046 128.105 21 127 21H113C111.895 21 111 20.1046 111 19V5C111 3.89543 111.895 3 113 3ZM116 18C116.276 18 116.5 17.7761 116.5 17.5V10.5C116.5 10.2239 116.276 10 116 10H114.5C114.224 10 114 10.2239 114 10.5V17.5C114 17.7761 114.224 18 114.5 18H116ZM115.25 9C114.422 9 113.75 8.32843 113.75 7.5C113.75 6.67157 114.422 6 115.25 6C116.078 6 116.75 6.67157 116.75 7.5C116.75 8.32843 116.078 9 115.25 9ZM125.5 18C125.776 18 126 17.7761 126 17.5V12.9C126.033 11.3108 124.858 9.95452 123.28 9.76C122.177 9.65925 121.108 10.1744 120.5 11.1V10.5C120.5 10.2239 120.276 10 120 10H118.5C118.224 10 118 10.2239 118 10.5V17.5C118 17.7761 118.224 18 118.5 18H120C120.276 18 120.5 17.7761 120.5 17.5V13.75C120.5 12.9216 121.172 12.25 122 12.25C122.828 12.25 123.5 12.9216 123.5 13.75V17.5C123.5 17.7761 123.724 18 124 18H125.5Z" fill="white"/>
</svg>
