<svg width="137" height="36" viewBox="0 0 137 36" fill="none" xmlns="http://www.w3.org/2000/svg">
<path d="M129.853 0.0160139C129.78 -0.0599857 127.142 0.0460138 124.846 2.36C122.55 4.67199 122.903 7.32398 122.955 7.39198C123.006 7.45998 126.228 7.56597 128.285 4.87599C130.342 2.186 129.927 0.0940135 129.853 0.0160139ZM136.991 23.4819C136.888 23.2899 131.984 21.0139 132.44 16.6379C132.897 12.26 136.048 11.06 136.097 10.93C136.147 10.8 134.812 9.34997 133.397 8.61597C132.358 8.09848 131.208 7.80199 130.03 7.74797C129.797 7.74197 128.99 7.55797 127.329 7.97997C126.235 8.25797 123.769 9.15797 123.09 9.19397C122.41 9.22997 120.385 8.14997 118.208 7.86397C116.814 7.61397 115.336 8.12597 114.279 8.51997C113.224 8.91197 111.216 10.028 109.812 12.9939C108.408 15.9579 109.142 20.6539 109.668 22.1139C110.193 23.5719 111.014 25.9619 112.409 27.7059C113.65 29.6739 115.296 31.0399 115.983 31.5038C116.67 31.9678 118.608 32.2758 119.952 31.6378C121.033 31.0219 122.985 30.6679 123.756 30.6939C124.525 30.7199 126.041 31.0019 127.594 31.7718C128.824 32.1658 129.987 32.0018 131.152 31.5618C132.317 31.1199 134.004 29.4439 135.973 26.0459C136.72 24.4659 137.06 23.6119 136.991 23.4819Z" fill="white"/>
<path d="M129.853 0.0160139C129.78 -0.0599857 127.142 0.0460138 124.846 2.36C122.55 4.67199 122.903 7.32398 122.955 7.39198C123.006 7.45998 126.228 7.56597 128.285 4.87599C130.342 2.186 129.927 0.0940135 129.853 0.0160139ZM136.991 23.4819C136.888 23.2899 131.984 21.0139 132.44 16.6379C132.897 12.26 136.048 11.06 136.097 10.93C136.147 10.8 134.812 9.34997 133.397 8.61597C132.358 8.09848 131.208 7.80199 130.03 7.74797C129.797 7.74197 128.99 7.55797 127.329 7.97997C126.235 8.25797 123.769 9.15797 123.09 9.19397C122.41 9.22997 120.385 8.14997 118.208 7.86397C116.814 7.61397 115.336 8.12597 114.279 8.51997C113.224 8.91197 111.216 10.028 109.812 12.9939C108.408 15.9579 109.142 20.6539 109.668 22.1139C110.193 23.5719 111.014 25.9619 112.409 27.7059C113.65 29.6739 115.296 31.0399 115.983 31.5038C116.67 31.9678 118.608 32.2758 119.952 31.6378C121.033 31.0219 122.985 30.6679 123.756 30.6939C124.525 30.7199 126.041 31.0019 127.594 31.7718C128.824 32.1658 129.987 32.0018 131.152 31.5618C132.317 31.1199 134.004 29.4439 135.973 26.0459C136.72 24.4659 137.06 23.6119 136.991 23.4819Z" fill="white"/>
<g clip-path="url(#clip0_76_153)">
<path d="M66.4508 6.98691C63.4533 8.02676 60.8683 10.0004 59.0755 12.618C57.2826 15.2356 56.3764 18.3591 56.49 21.5298C56.6035 24.7005 57.7309 27.7512 59.7064 30.2338C61.6819 32.7164 64.4015 34.5001 67.4657 35.3228C69.9499 35.9639 72.5526 35.992 75.05 35.4049C77.3125 34.8967 79.4042 33.8096 81.1203 32.2502C82.9065 30.5776 84.2029 28.4498 84.8703 26.0955C85.5955 23.5353 85.7246 20.843 85.2477 18.2252H71.2977V24.0119H79.3766C79.2151 24.9349 78.8691 25.8157 78.3593 26.6018C77.8495 27.3879 77.1863 28.0631 76.4094 28.5869C75.423 29.2397 74.3109 29.6788 73.1446 29.876C71.9749 30.0935 70.7752 30.0935 69.6055 29.876C68.4199 29.6311 67.2984 29.1418 66.3125 28.4393C64.7285 27.318 63.5391 25.725 62.9141 23.8877C62.2787 22.0159 62.2787 19.9868 62.9141 18.115C63.359 16.803 64.0945 15.6085 65.0657 14.6205C66.177 13.4691 67.5841 12.6461 69.1324 12.2418C70.6808 11.8374 72.3106 11.8674 73.843 12.3283C75.0402 12.6956 76.1349 13.3377 77.0399 14.2033C77.9508 13.2971 78.8602 12.3885 79.768 11.4775C80.2368 10.9877 80.7477 10.5213 81.2094 10.0197C79.8278 8.73422 78.2063 7.73388 76.4375 7.07598C73.2165 5.90642 69.6922 5.87499 66.4508 6.98691Z" fill="white"/>
<path d="M66.4504 6.98659C69.6915 5.87391 73.2158 5.90451 76.4371 7.07331C78.2062 7.73568 79.827 8.74084 81.2066 10.0311C80.7379 10.5327 80.2434 11.0014 79.7652 11.4889C78.8559 12.3967 77.9473 13.3014 77.0395 14.203C76.1345 13.3374 75.0398 12.6953 73.8426 12.328C72.3106 11.8654 70.6809 11.8338 69.1322 12.2365C67.5834 12.6391 66.1755 13.4606 65.0629 14.6108C64.0917 15.5988 63.3562 16.7933 62.9113 18.1053L58.0527 14.3436C59.7918 10.8949 62.8029 8.25696 66.4504 6.98659Z" fill="#E33629"/>
<path d="M56.7643 18.0703C57.0252 16.776 57.4588 15.5226 58.0533 14.3438L62.9119 18.1148C62.2765 19.9866 62.2765 22.0157 62.9119 23.8875C61.2932 25.1375 59.6736 26.3938 58.0533 27.6563C56.5654 24.6945 56.1116 21.3199 56.7643 18.0703Z" fill="#F8BD00"/>
<path d="M71.2979 18.2227H85.2479C85.7248 20.8405 85.5958 23.5328 84.8706 26.093C84.2032 28.4472 82.9067 30.575 81.1206 32.2477C79.5526 31.0242 77.9776 29.8102 76.4096 28.5867C77.187 28.0624 77.8505 27.3865 78.3604 26.5995C78.8702 25.8126 79.216 24.9308 79.3768 24.007H71.2979C71.2956 22.0805 71.2979 20.1516 71.2979 18.2227Z" fill="#587DBD"/>
<path d="M58.0508 27.6564C59.6711 26.4064 61.2906 25.1502 62.9094 23.8877C63.5356 25.7257 64.7267 27.3187 66.3125 28.4393C67.3014 29.1386 68.4254 29.6239 69.6125 29.8643C70.7822 30.0818 71.9819 30.0818 73.1516 29.8643C74.3179 29.6671 75.43 29.228 76.4164 28.5752C77.9844 29.7986 79.5594 31.0127 81.1273 32.2361C79.4115 33.7964 77.3197 34.8843 75.057 35.3932C72.5596 35.9803 69.9569 35.9521 67.4727 35.3111C65.5079 34.7865 63.6727 33.8617 62.082 32.5947C60.3986 31.2579 59.0235 29.5734 58.0508 27.6564Z" fill="#319F43"/>
</g>
<path d="M33 19.6008C33 10.4325 25.6126 3 16.5 3C7.38736 3 0 10.4324 0 19.6008C0 27.8867 6.03384 34.7547 13.9219 36V24.3995H9.73242V19.6008H13.9219V15.9435C13.9219 11.7829 16.3853 9.4847 20.1541 9.4847C21.9594 9.4847 23.8477 9.80894 23.8477 9.80894V13.8943H21.7671C19.7172 13.8943 19.0781 15.174 19.0781 16.4869V19.6008H23.6543L22.9228 24.3995H19.0781V36C26.9662 34.7547 33 27.8869 33 19.6008Z" fill="#1877F2"/>
<defs>
<clipPath id="clip0_76_153">
<rect width="30" height="30" fill="white" transform="translate(56 6)"/>
</clipPath>
</defs>
</svg>
