<svg width="298" height="18" viewBox="0 0 298 18" fill="none" xmlns="http://www.w3.org/2000/svg">
<path d="M40.5 0L43.7292 5.52274L50 6.87539L45.725 11.6413L46.3713 18L40.5 15.4227L34.6287 18L35.275 11.6413L31 6.87539L37.2708 5.52274L40.5 0Z" fill="#FFCB45"/>
<path d="M9.5 0L12.7292 5.52274L19 6.87539L14.725 11.6413L15.3713 18L9.5 15.4227L3.62868 18L4.275 11.6413L0 6.87539L6.27077 5.52274L9.5 0Z" fill="#FFCB45"/>
<path d="M71.5 0L74.7292 5.52274L81 6.87539L76.725 11.6413L77.3713 18L71.5 15.4227L65.6287 18L66.275 11.6413L62 6.87539L68.2708 5.52274L71.5 0Z" fill="#FFCB45"/>
<path d="M102.5 0L105.729 5.52274L112 6.87539L107.725 11.6413L108.371 18L102.5 15.4227L96.6287 18L97.275 11.6413L93 6.87539L99.2708 5.52274L102.5 0Z" fill="#FFCB45"/>
<path d="M133.5 0L136.729 5.52274L143 6.87539L138.725 11.6413L139.371 18L133.5 15.4227L127.629 18L128.275 11.6413L124 6.87539L130.271 5.52274L133.5 0Z" fill="#FFCB45"/>
<path d="M164.5 0L167.729 5.52274L174 6.87539L169.725 11.6413L170.371 18L164.5 15.4227L158.629 18L159.275 11.6413L155 6.87539L161.271 5.52274L164.5 0Z" fill="#FFCB45"/>
<path d="M195.5 0L198.729 5.52274L205 6.87539L200.725 11.6413L201.371 18L195.5 15.4227L189.629 18L190.275 11.6413L186 6.87539L192.271 5.52274L195.5 0Z" fill="#FFCB45"/>
<path d="M226.5 0L229.729 5.52274L236 6.87539L231.725 11.6413L232.371 18L226.5 15.4227L220.629 18L221.275 11.6413L217 6.87539L223.271 5.52274L226.5 0Z" fill="#F2F2F2"/>
<path d="M257.5 0L260.729 5.52274L267 6.87539L262.725 11.6413L263.371 18L257.5 15.4227L251.629 18L252.275 11.6413L248 6.87539L254.271 5.52274L257.5 0Z" fill="#F2F2F2"/>
<path d="M288.5 0L291.729 5.52274L298 6.87539L293.725 11.6413L294.371 18L288.5 15.4227L282.629 18L283.275 11.6413L279 6.87539L285.271 5.52274L288.5 0Z" fill="#F2F2F2"/>
</svg>
