<svg width="20" height="20" viewBox="0 0 20 20" fill="none" xmlns="http://www.w3.org/2000/svg">
<path d="M4 17V15.8333C4 12.6117 6.46244 10 9.5 10C12.5375 10 15 12.6117 15 15.8333V17" stroke="#FF6A00" stroke-width="1.35225" stroke-linecap="round"/>
<path d="M9.76505 10.0154C11.2587 10.0154 12.4695 8.80464 12.4695 7.31095C12.4695 5.8173 11.2587 4.60645 9.76505 4.60645C8.27135 4.60645 7.06055 5.8173 7.06055 7.31095C7.06055 8.80464 8.27135 10.0154 9.76505 10.0154Z" stroke="#FF6A00" stroke-width="1.35225" stroke-linecap="round" stroke-linejoin="round"/>
<path d="M9.765 19.03C14.7438 19.03 18.78 14.9938 18.78 10.015C18.78 5.03615 14.7438 1 9.765 1C4.78615 1 0.75 5.03615 0.75 10.015C0.75 14.9938 4.78615 19.03 9.765 19.03Z" stroke="#FF6A00" stroke-width="1.35225"/>
</svg>
