<svg width="43" height="44" viewBox="0 0 43 44" fill="none" xmlns="http://www.w3.org/2000/svg">
<path d="M22.0788 41.6483C32.9906 41.2673 41.5274 32.1126 41.1464 21.2009C40.7653 10.2891 31.6107 1.75225 20.6989 2.13329C9.78715 2.51434 1.25031 11.669 1.63135 22.5808C2.0124 33.4925 11.167 42.0294 22.0788 41.6483Z" fill="#D9D9D9" stroke="#FF6A00" stroke-width="3"/>
<path d="M9.01563 37.2238L9.01563 34.6653C9.01563 27.6004 14.4157 21.873 21.0769 21.873C27.7381 21.873 33.1382 27.6004 33.1382 34.6653L33.1382 37.2238" fill="#FF6A00"/>
<path d="M9.01563 37.2238L9.01563 34.6653C9.01563 27.6004 14.4157 21.873 21.0769 21.873C27.7381 21.873 33.1382 27.6004 33.1382 34.6653L33.1382 37.2238" stroke="#FF6A00" stroke-width="1.35225" stroke-linecap="round"/>
<path d="M21.3891 21.8917C24.6627 21.7773 27.2237 19.031 27.1093 15.7574C26.995 12.4839 24.2487 9.92284 20.9751 10.0372C17.7015 10.1515 15.1405 12.8979 15.2548 16.1714C15.3692 19.445 18.1155 22.006 21.3891 21.8917Z" fill="#FF6A00" stroke="#FF6A00" stroke-width="1.35225" stroke-linecap="round" stroke-linejoin="round"/>
</svg>
